<svg xmlns="http://www.w3.org/2000/svg" viewBox="0 0 32 32"><defs><style>.cls-1{fill:#fff;}</style></defs><title>vk-white</title><g id="Layer_2" data-name="Layer 2"><g id="Layer_1-2" data-name="Layer 1"><path class="cls-1" d="M16,0A16,16,0,1,0,32,16,16,16,0,0,0,16,0Zm9.1663,23.0176-2.8047.0389a1.987,1.987,0,0,1-1.3968-.426c-1.05-.72-2.0389-2.5933-2.81-2.348-.7826.2478-.7576,1.933-.7576,1.933a.921.921,0,0,1-.1729.5515,1.0565,1.0565,0,0,1-.5722.2506h-1.256a7.208,7.208,0,0,1-5.2115-2.3744c-2.661-2.77-5.01-8.2683-5.01-8.2683s-.1351-.3608.0111-.5348c.1658-.1964.6168-.2089.6168-.2089l3.0011-.0193a1.3105,1.3105,0,0,1,.4863.1961.9375.9375,0,0,1,.26.3512,20.1886,20.1886,0,0,0,1.1266,2.3366c1.2549,2.1669,1.8385,2.6421,2.2646,2.4093.621-.3383.4346-3.0639.4346-3.0639a3.0514,3.0514,0,0,0-.3119-1.4285,1.4208,1.4208,0,0,0-.9333-.47c-.1683-.0221.1087-.415.4681-.59a6.8018,6.8018,0,0,1,2.6222-.2674,5.35,5.35,0,0,1,1.4735.1462c1.035.2492.6838,1.2143.6838,3.5292,0,.7408-.1337,1.7836.4011,2.1305.23.1476.7925.0225,2.199-2.3676a18.2152,18.2152,0,0,0,1.1672-2.4621.8765.8765,0,0,1,.2784-.34.72.72,0,0,1,.4078-.0709l3.16-.02s.9483-.1141,1.1027.3148c.16.45-.3551,1.5-1.646,3.22-2.1195,2.8243-2.3548,2.5612-.5961,4.1933a9.3608,9.3608,0,0,1,2.0863,2.4136C26.6341,22.9271,25.1663,23.0176,25.1663,23.0176Z"/></g></g></svg>